<svg xmlns="http://www.w3.org/2000/svg" viewBox="0 0 871.659 360.417"><defs><style>.a{opacity:0.1;}.b{fill:#553e15;}</style></defs><g class="a" transform="translate(-678.985 14.661)"><path class="b" d="M1550.643,103.857c-.62-21-16.733-17.968-25.72-16.863s-12.836,7.736-13.146,12.975a60.422,60.422,0,0,0,.885,12.729c.31,3.315.885,6.344.885,9.414v35.65c-.885,5.526-2.7,11.338-5.091,18.255a78.991,78.991,0,0,1-7.481,14.939,37.881,37.881,0,0,1-9.251,9.414,12.16,12.16,0,0,1-9.873,1.924c-5.4-1.105-9.251-4.42-12.571-9.946-3.275-6.344-4.781-14.939-4.781-25.172a213.151,213.151,0,0,1,.885-21.816c.62-6.631,1.505-12.729,2.39-17.682,2.081-11.051,14.653-41.994,11.643-50.3-2.7-8.309-25.719-6.631-28.994-4.707-5.4,2.783-9.251,8.022-11.377,15.758-1.195,3.6-1.815,7.2-2.7,10.765-.62,2.5-1.195,5.239-1.814,7.736-2.082,8.309-3.9,17.15-5.4,26.277a201,201,0,0,0-2.39,31.23v1.678a47.137,47.137,0,0,1-5.4,12.443,33.611,33.611,0,0,1-7.791,9.66,10.335,10.335,0,0,1-8.986,2.5c-2.081-.287-3.585-.819-4.472-1.924a17.5,17.5,0,0,1-3.009-5.526,23,23,0,0,1-1.2-6.1,27.242,27.242,0,0,1-.31-4.42V93.624a45.489,45.489,0,0,0-1.815-12.975,34.345,34.345,0,0,0-5.667-12.443,28.763,28.763,0,0,0-11.641-9.414,43.887,43.887,0,0,0-18.548-4.42c-5.4-.287-10.447,2.783-15.538,4.42a48.763,48.763,0,0,0-13.457,6.917,52.514,52.514,0,0,0-11.376,11.051,53.718,53.718,0,0,0-4.471,6.1V7.384c.31-3.315.31-6.631-2.081-10.519a22.791,22.791,0,0,0-9.871-8.554c-5.4-2.783-11.376-3.6-15.538-2.5-6.6,1.678-9.871,6.631-9.871,15.185V139.752c-.885,5.239-3.01,10.765-5.667,17.15a65.132,65.132,0,0,1-9.871,16.045,47.027,47.027,0,0,1-14.962,11.624c-5.666,3.029-12.262,4.42-20.628,4.993a39.632,39.632,0,0,1-16.157-2.5,33.99,33.99,0,0,1-12.837-8.309,42.565,42.565,0,0,1-8.676-14.08,59.951,59.951,0,0,1-3.275-19.892,128.348,128.348,0,0,1,2.39-24.312,89.905,89.905,0,0,1,6.6-19.605c2.7-5.526,5.666-9.946,9.251-12.975,3.276-2.783,6.6-4.42,9.561-4.42h.311a10.417,10.417,0,0,1,6.286,1.678,15.364,15.364,0,0,1,4.205,4.42,21.264,21.264,0,0,1,2.39,5.812,40.149,40.149,0,0,0,1.506,5.812c-.31,2.783.31,4.993,2.081,6.344a8.268,8.268,0,0,0,6.6,2.21h.62a18.9,18.9,0,0,0,6.862-1.392,25.1,25.1,0,0,0,7.48-3.6,28.35,28.35,0,0,0,5.976-5.526,12.42,12.42,0,0,0,2.7-8.022,36.009,36.009,0,0,0-2.081-11.624,39.533,39.533,0,0,0-7.481-12.443,38.981,38.981,0,0,0-13.147-9.414c-5.4-2.783-11.642-3.888-19.434-3.888h-.619a55.96,55.96,0,0,0-29.3,8.022,75.517,75.517,0,0,0-22.709,21,103.138,103.138,0,0,0-14.652,29.838,106.934,106.934,0,0,0-5.4,34.013,95.39,95.39,0,0,0,1.195,15.472,18.072,18.072,0,0,0-.62,1.924c-.31.573-.31,1.392-.619,2.21-1.505,4.993-3.276,6.917-5.4,11.051a38.945,38.945,0,0,1-7.791,10.519,13.187,13.187,0,0,1-9.251,3.888,11.45,11.45,0,0,1-5.091-1.105,9.932,9.932,0,0,1-3.586-3.315,19.288,19.288,0,0,1-2.081-4.993,37.7,37.7,0,0,1-.884-5.812V82.859c2.7-.287,5.09-1.392,5.975-3.6a20.171,20.171,0,0,0,1.506-8.309c0-5.812-2.081-10.519-6.286-13.834s-9.252-4.993-15.538-4.993h-.31c-14.033.287-26.6,1.678-38.866,7.2a98.449,98.449,0,0,0-33.2,23.207c-9.252,9.66-17.042,21.816-23.329,35.937a119.615,119.615,0,0,0-8.676,45.883,21.188,21.188,0,0,0,.311,4.42c-2.081,4.134-4.781,6.344-7.792,9.946-3.276,3.888-7.79,7.2-14.032,10.519a48.107,48.107,0,0,1-20.008,3.888h0a44.331,44.331,0,0,1-13.768-1.924,37.634,37.634,0,0,1-10.181-4.707,41.253,41.253,0,0,1-7.48-6.917,32.174,32.174,0,0,1-3.9-6.1,88.354,88.354,0,0,0,25.1-11.051,90.861,90.861,0,0,0,20.319-18.787,80.133,80.133,0,0,0,12.262-23.207A72.986,72.986,0,0,0,975.8,96.121a59.074,59.074,0,0,0-2.7-17.968A42.361,42.361,0,0,0,965.042,63.5a38.6,38.6,0,0,0-13.147-9.946,42.192,42.192,0,0,0-17.354-4.134c-8.676-.573-17.351,1.924-25.409,6.917a76.809,76.809,0,0,0-21.513,20.179,120.791,120.791,0,0,0-15.228,29.838,111.021,111.021,0,0,0-5.666,36.223c0,12.729,2.08,24.067,6.6,33.726a73.2,73.2,0,0,0,17.353,24.6,77.21,77.21,0,0,0,25.1,15.472,87.059,87.059,0,0,0,28.994,5.812c11.067.287,20.628-.819,28.419-3.029,8.676-2.21,15.538-4.134,21.824-8.022a89.782,89.782,0,0,0,8.366-6.1,9.1,9.1,0,0,1,1.506,1.924,48.623,48.623,0,0,0,16.732,12.443,51.146,51.146,0,0,0,21.2,4.134h2.081a45.824,45.824,0,0,0,22.4-5.526c5.4-2.783,9.871-4.993,13.767-8.554a33.966,33.966,0,0,0,11.952,9.127c5.4,2.783,11.642,3.888,19.124,3.888h1.505c9.561-.287,18.237-.287,25.408-4.707a67.093,67.093,0,0,0,18.238-16.577c1.194-1.392,2.08-3.029,3.276-4.42a64.964,64.964,0,0,0,5.976,6.344,70.751,70.751,0,0,0,24.524,14.366,83.05,83.05,0,0,0,26.6,4.42h1.815c11.376-.286,20.627-1.678,28.419-4.707a79.17,79.17,0,0,0,22.133-11.051,59.94,59.94,0,0,0,5.091-3.888,24.45,24.45,0,0,0,2.08,8.554,26.9,26.9,0,0,0,5.667,6.631,19.235,19.235,0,0,0,7.481,3.315,27.535,27.535,0,0,0,6.6.819h.885c3.585,0,6.6-.573,8.676-1.924a11.35,11.35,0,0,0,4.471-5.812,18.534,18.534,0,0,0,1.2-6.631V140.612a70.024,70.024,0,0,1,5.976-21.816,88.333,88.333,0,0,1,11.067-18.787,66.4,66.4,0,0,1,12.572-12.443c4.471-3.315,7.481-6.631,8.986-6.631h.31a3.766,3.766,0,0,1,3.01,1.105,15.023,15.023,0,0,1,2.391,3.6,14.7,14.7,0,0,1,.885,5.812,57.932,57.932,0,0,1,.31,7.449v79.323a53.327,53.327,0,0,0,2.391,16.045,50.925,50.925,0,0,0,7.48,14.08,41.54,41.54,0,0,0,11.953,10.233,36.425,36.425,0,0,0,16.157,4.993c9.561.819,18.237-.573,25.409-4.707a59.359,59.359,0,0,0,14.962-11.338,27.4,27.4,0,0,0,1.814,2.783,59.016,59.016,0,0,0,14.962,15.472,50.715,50.715,0,0,0,20.009,8.022c9.871,1.678,18.813.287,25.719-4.134a57.39,57.39,0,0,0,13.767-11.338v20.711c-26.294,1.392-49.313,23.207-52.633,55.01-3.01,28.2,19.433,51.408,44.532,51.695s45.417-18.5,45.417-43.386C1550.643,296.228,1550.643,103.857,1550.643,103.857Zm-643.325,38.72c-.31-2.21,0-4.993.31-8.841v-1.392c.309-3.6.885-7.736,1.5-11.87v-.819a136.37,136.37,0,0,1,3.276-13.834,74.834,74.834,0,0,1,4.781-12.156,32.3,32.3,0,0,1,6.284-8.309,11.291,11.291,0,0,1,7.172-2.783v-2.5h0l.31,2.5c1.195,0,2.7.287,4.205,3.029a20.676,20.676,0,0,1,2.081,9.659,67.462,67.462,0,0,1-2.391,17.4A49.525,49.525,0,0,1,927.99,127.6a62.769,62.769,0,0,1-10.447,11.87,51.752,51.752,0,0,1-9.871,6.344A8.466,8.466,0,0,1,907.318,142.576Zm165.335,30.943a44.464,44.464,0,0,1-8.677,13.261,18.245,18.245,0,0,1-12.571,5.812h-.885c-6.287,0-11.068-2.21-14.652-6.344-3.9-4.993-5.667-11.87-5.667-21.816q0-20.752,6.286-36.469a80.226,80.226,0,0,1,15.848-25.991,66.694,66.694,0,0,1,20.008-14.939c0,8.022,0,17.4.31,22.675v63.81Zm432.262,140.963c-17.928,5.239-24.523-25.991-15.227-41.462,8.056-13.261,26.293-14.08,26.293-14.08S1523.153,309.244,1504.916,314.483ZM697.76,40.579h0c3.276,0,1.2.287,8.366-2.5,1.815-.573,3.585-1.392,5.666-2.21,0,1.105-.31,2.21-.31,3.315-2.08,24.885-7.481,91.479-7.791,109.734-.31,7.449.62,15.758,5.976,22.962-7.481,4.42-15.847,9.946-21.824,18.255s-8.056,17.4-5.666,25.7,8.676,15.472,18.237,19.892a70.535,70.535,0,0,0,13.457,4.707,116.568,116.568,0,0,0,28.109,3.315,170.308,170.308,0,0,0,35.59-4.134c32.89-6.917,57.1-21.284,74.146-44.245,18.813-25.418,14.962-54.437-10.181-74.616a99.994,99.994,0,0,0-41.256-19.606,80.841,80.841,0,0,0,27.8-27.1c8.675-13.548,10.447-26.523,5.666-38.679-7.171-18.5-22.4-30.943-45.151-36.755a155.753,155.753,0,0,0-40.947-4.993c-4.471,0-9.252.287-14.653.573-17.352,1.105-44.841,7.2-51.128,15.758-3.9,5.526-3.9,13.548.311,20.465C685.808,36.977,691.784,40.579,697.76,40.579ZM775.8,179.045h0c7.48-.819,9.251-4.707,9.561-7.2a9.969,9.969,0,0,0-4.47-9.127A24.555,24.555,0,0,0,769.25,159.4h-.62c-6.6,0-12.837.286-19.433.819a15.157,15.157,0,0,0-3.585.287l1.815-38.433a127.534,127.534,0,0,1,19.742-1.678c12.572,0,23.9,2.21,34.086,6.917,13.146,5.812,19.743,16.045,20.318,30.411.62,27.914-14.342,47.806-42.452,56.115a88.128,88.128,0,0,1-25.409,4.134,65.266,65.266,0,0,1-12.572-1.105,35.871,35.871,0,0,1-3.9-1.105c-5.091-1.678-8.366-4.707-9.562-8.022-1.195-3.6-.31-7.449,2.7-11.624,4.78-6.344,12.262-11.051,21.823-13.261A172.18,172.18,0,0,1,775.8,179.045ZM749.2,26.212a55.042,55.042,0,0,1,7.171-.287c14.962,0,40.371,4.993,40.371,23.78,0,12.443-11.953,23.494-21.824,30.411A102.115,102.115,0,0,1,749.2,93.378C749.773,67.92,749.508,51.63,749.2,26.212Z" transform="translate(0 0)"/></g></svg>