<?xml version="1.0" encoding="utf-8"?>
<!-- Generator: Adobe Illustrator 19.1.0, SVG Export Plug-In . SVG Version: 6.00 Build 0)  -->
<svg version="1.1" id="Layer_1" xmlns="http://www.w3.org/2000/svg" xmlns:xlink="http://www.w3.org/1999/xlink" x="0px" y="0px"
	 viewBox="678.9 -14.7 1969.1 880.6" style="enable-background:new 678.9 -14.7 1969.1 880.6;" xml:space="preserve">
<style type="text/css">
	.st0{fill:#FFFFFF;}
</style>
<g>
	<path class="st0" d="M2648.1,274.9c-1.4-51.3-37.8-43.9-58.1-41.2c-20.3,2.7-29,18.9-29.7,31.7c-0.7,10.8,0.7,20.9,2,31.1
		c0.7,8.1,2,15.5,2,23v87.1c-2,13.5-6.1,27.7-11.5,44.6c-4.1,12.2-9.5,23.6-16.9,36.5c-6.8,10.1-13.5,17.6-20.9,23
		c-6.8,4.7-13.5,6.8-22.3,4.7c-12.2-2.7-20.9-10.8-28.4-24.3c-7.4-15.5-10.8-36.5-10.8-61.5c0-23,0.7-39.8,2-53.3
		c1.4-16.2,3.4-31.1,5.4-43.2c4.7-27,33.1-102.6,26.3-122.9c-6.1-20.3-58.1-16.2-65.5-11.5c-12.2,6.8-20.9,19.6-25.7,38.5
		c-2.7,8.8-4.1,17.6-6.1,26.3c-1.4,6.1-2.7,12.8-4.1,18.9c-4.7,20.3-8.8,41.9-12.2,64.2c-3.4,23.6-5.4,48.6-5.4,76.3v4.1
		c-2.7,10.8-6.8,20.9-12.2,30.4c-5.4,10.1-10.8,17.6-17.6,23.6c-5.4,5.4-12.2,7.4-20.3,6.1c-4.7-0.7-8.1-2-10.1-4.7
		c-2.7-4.1-5.4-8.1-6.8-13.5s-2.7-10.1-2.7-14.9c-0.7-4.7-0.7-8.8-0.7-10.8V249.9c0-11.5-1.4-21.6-4.1-31.7
		c-2-10.8-6.8-20.9-12.8-30.4s-15.5-17.6-26.3-23c-11.5-6.1-24.3-10.1-41.9-10.8c-12.2-0.7-23.6,6.8-35.1,10.8
		c-10.1,3.4-19.6,8.8-30.4,16.9c-10.1,8.1-18.9,16.9-25.7,27c-4.1,5.4-7.4,10.1-10.1,14.9V45.3c0-2,0-4.1,0-6.1
		c0.7-8.1,0.7-16.2-4.7-25.7c-6.1-10.8-15.5-17.6-22.3-20.9c-12.2-6.8-25.7-8.8-35.1-6.1c-14.9,4.1-22.3,16.2-22.3,37.1v339
		c-2,12.8-6.8,26.3-12.8,41.9c-5.4,13.5-12.8,27-22.3,39.2c-8.8,11.5-20.3,20.9-33.8,28.4c-12.8,7.4-27.7,10.8-46.6,12.2
		c-12.8,0.7-25-1.4-36.5-6.1s-20.3-10.8-29-20.3c-8.1-9.5-14.2-19.6-19.6-34.4c-4.7-14.2-7.4-31.1-7.4-48.6c0-20.3,2-40.5,5.4-59.4
		c3.4-17.6,8.8-33.8,14.9-47.9c6.1-13.5,12.8-24.3,20.9-31.7c7.4-6.8,14.9-10.8,21.6-10.8h0.7c6.1,0,10.8,1.4,14.2,4.1
		c4.1,2.7,6.8,6.8,9.5,10.8c2.7,5.4,4.7,10.1,5.4,14.2c0.7,4.7,2,9.5,3.4,14.2c-0.7,6.8,0.7,12.2,4.7,15.5c4.1,4.1,9.5,6.1,14.9,5.4
		c0.7,0,0.7,0,1.4,0c3.4,0,9.5-0.7,15.5-3.4c6.8-2,12.2-5.4,16.9-8.8c5.4-4.1,10.1-8.8,13.5-13.5c4.1-5.4,6.1-12.2,6.1-19.6
		c0-8.8-1.4-17.6-4.7-28.4c-3.4-10.8-9.5-20.9-16.9-30.4c-8.8-10.1-18.2-17.6-29.7-23c-12.2-6.8-26.3-9.5-43.9-9.5h-1.4
		c-24.3,0-46.6,6.8-66.2,19.6c-20.3,13.5-37.8,30.4-51.3,51.3c-13.5,20.3-25,44.6-33.1,72.9c-8.1,26.3-12.2,54-12.2,83.1
		c0,12.2,0.7,24.3,2.7,37.8c-0.7,1.4-0.7,2.7-1.4,4.7c-0.7,1.4-0.7,3.4-1.4,5.4c-3.4,12.2-7.4,16.9-12.2,27
		c-5.4,10.8-10.8,18.9-17.6,25.7c-6.1,6.1-12.8,9.5-20.9,9.5c-4.1,0-7.4-0.7-11.5-2.7c-3.4-2-5.4-4.1-8.1-8.1
		c-2-3.4-3.4-7.4-4.7-12.2c-0.7-4.7-2-9.5-2-14.2V223.6c6.1-0.7,11.5-3.4,13.5-8.8c2-4.7,3.4-11.5,3.4-20.3
		c0-14.2-4.7-25.7-14.2-33.8s-20.9-12.2-35.1-12.2h-0.7c-31.7,0.7-60.1,4.1-87.8,17.6c-27.7,12.8-53.3,31.7-75,56.7
		c-20.9,23.6-38.5,53.3-52.7,87.8c-12.8,33.8-19.6,70.9-19.6,112.1c0,3.4,0,7.4,0.7,10.8c-4.7,10.1-10.8,15.5-17.6,24.3
		c-7.4,9.5-17.6,17.6-31.7,25.7c-12.2,6.1-27.7,9.5-45.2,9.5l0,0c-11.5,0-21.6-1.4-31.1-4.7c-9.5-3.4-16.9-6.8-23-11.5
		c-6.8-5.4-12.2-10.8-16.9-16.9c-3.4-4.7-6.8-10.1-8.8-14.9c20.9-6.1,39.2-14.9,56.7-27c18.2-13.5,33.1-28.4,45.9-45.9
		c12.2-17.6,21.6-36.5,27.7-56.7c6.1-18.9,9.5-38.5,9.5-59.4c0-15.5-2-29.7-6.1-43.9c-4.1-13.5-10.1-25.7-18.2-35.8
		s-17.6-18.2-29.7-24.3c-11.5-6.1-24.3-9.5-39.2-10.1c-19.6-1.4-39.2,4.7-57.4,16.9s-34.4,28.4-48.6,49.3
		c-13.5,20.3-25,44.6-34.4,72.9c-8.8,27.7-12.8,57.4-12.8,88.5s4.7,58.8,14.9,82.4c9.5,23.6,23,43.9,39.2,60.1
		c16.2,16.2,34.4,28.4,56.7,37.8c20.9,8.8,43.2,13.5,65.5,14.2c25,0.7,46.6-2,64.2-7.4c19.6-5.4,35.1-10.1,49.3-19.6
		c6.8-4.7,13.5-10.1,18.9-14.9c1.4,1.4,2.7,3.4,3.4,4.7c10.1,12.8,23,23,37.8,30.4c14.2,6.8,29.7,10.1,47.9,10.1c1.4,0,3.4,0,4.7,0
		c18.9,0,35.8-4.7,50.6-13.5c12.2-6.8,22.3-12.2,31.1-20.9c7.4,9.5,16.2,16.9,27,22.3c12.2,6.8,26.3,9.5,43.2,9.5c1.4,0,2.7,0,3.4,0
		c21.6-0.7,41.2-0.7,57.4-11.5c15.5-10.1,29-23.6,41.2-40.5c2.7-3.4,4.7-7.4,7.4-10.8c4.1,5.4,8.8,10.8,13.5,15.5
		c15.5,15.5,34.4,27,55.4,35.1c20.3,7.4,40.5,10.8,60.1,10.8c1.4,0,2.7,0,4.1,0c25.7-0.7,46.6-4.1,64.2-11.5
		c17.6-6.1,34.4-14.9,50-27c4.1-2.7,7.4-6.1,11.5-9.5c0.7,8.1,2,14.9,4.7,20.9c4.1,6.8,8.1,12.2,12.8,16.2
		c5.4,4.1,10.8,6.8,16.9,8.1c5.4,1.4,10.1,2,14.9,2c0.7,0,2,0,2,0c8.1,0,14.9-1.4,19.6-4.7c4.7-3.4,8.1-8.1,10.1-14.2
		c2-6.1,2.7-10.8,2.7-16.2V364.7c2-19.6,6.8-37.8,13.5-53.3c7.4-17.6,15.5-33.1,25-45.9c9.5-12.8,18.9-23,28.4-30.4
		c10.1-8.1,16.9-16.2,20.3-16.2h0.7c4.1,0,5.4,1.4,6.8,2.7c2,2.7,4.1,5.4,5.4,8.8c1.4,3.4,2,8.1,2,14.2c0.7,5.4,0.7,12.2,0.7,18.2
		v193.8c0,14.2,2,27.7,5.4,39.2c4.1,12.8,9.5,23.6,16.9,34.4c7.4,10.1,16.2,18.2,27,25c10.1,6.8,22.3,10.8,36.5,12.2
		c21.6,2,41.2-1.4,57.4-11.5c12.8-7.4,24.3-16.9,33.8-27.7c1.4,2.7,2.7,4.7,4.1,6.8c9.5,14.9,20.3,27.7,33.8,37.8
		s28.4,16.2,45.2,19.6c22.3,4.1,42.5,0.7,58.1-10.1c11.5-7.4,21.6-16.2,31.1-27.7v50.6c-59.4,3.4-111.4,56.7-118.9,134.4
		c-6.8,68.9,43.9,125.6,100.6,126.3s102.6-45.2,102.6-106C2648.1,744.9,2648.1,274.9,2648.1,274.9z M1194.8,369.5
		c-0.7-5.4,0-12.2,0.7-21.6v-3.4c0.7-8.8,2-18.9,3.4-29v-2c2-10.8,4.1-22.3,7.4-33.8c3.4-11.5,6.8-21.6,10.8-29.7
		c4.1-8.1,8.8-14.9,14.2-20.3c5.4-4.7,10.8-6.8,16.2-6.8v-6.1l0,0l0.7,6.1c2.7,0,6.1,0.7,9.5,7.4c2.7,5.4,4.7,13.5,4.7,23.6
		c0,14.2-2,29-5.4,42.5c-3.4,12.8-8.1,25-15.5,36.5c-6.1,10.1-13.5,18.9-23.6,29c-6.1,5.4-13.5,10.8-22.3,15.5
		C1194.8,375.5,1194.8,372.8,1194.8,369.5z M1568.3,445.1c-5.4,12.8-11.5,23.6-19.6,32.4s-16.9,13.5-28.4,14.2h-2
		c-14.2,0-25-5.4-33.1-15.5c-8.8-12.2-12.8-29-12.8-53.3c0-33.8,4.7-63.5,14.2-89.1c8.8-25,20.9-45.9,35.8-63.5
		c13.5-15.5,29-28.4,45.2-36.5c0,19.6,0,42.5,0.7,55.4c0,4.7,0,8.1,0,8.8V445.1L1568.3,445.1z M2544.8,789.5
		c-40.5,12.8-55.4-63.5-34.4-101.3c18.2-32.4,59.4-34.4,59.4-34.4S2586,776.7,2544.8,789.5z M721.4,120.3L721.4,120.3
		c7.4,0,2.7,0.7,18.9-6.1c4.1-1.4,8.1-3.4,12.8-5.4c0,2.7-0.7,5.4-0.7,8.1c-4.7,60.8-16.9,223.5-17.6,268.1
		c-0.7,18.2,1.4,38.5,13.5,56.1c-16.9,10.8-35.8,24.3-49.3,44.6c-13.5,20.3-18.2,42.5-12.8,62.8s19.6,37.8,41.2,48.6
		c9.5,4.7,19.6,8.8,30.4,11.5c20.3,5.4,41.2,8.1,63.5,8.1c25,0,51.3-3.4,80.4-10.1c74.3-16.9,129-52,167.5-108.1
		c42.5-62.1,33.8-133-23-182.3c-27-23.6-58.1-39.2-93.2-47.9c25.7-16.2,46.6-38.5,62.8-66.2c19.6-33.1,23.6-64.8,12.8-94.5
		c-16.2-45.2-50.6-75.6-102-89.8c-27.7-8.1-58.1-12.2-92.5-12.2C824,5.6,813.2,6.3,801,7c-39.2,2.7-101.3,17.6-115.5,38.5
		c-8.8,13.5-8.8,33.1,0.7,50C694.4,111.5,707.9,120.3,721.4,120.3z M897.7,458.6L897.7,458.6c16.9-2,20.9-11.5,21.6-17.6
		c0.7-7.4-2.7-17.6-10.1-22.3c-6.8-4.1-16.2-8.1-26.3-8.1h-1.4c-14.9,0-29,0.7-43.9,2c-2.7,0-5.4,0-8.1,0.7l4.1-93.9
		c16.2-2.7,30.4-4.1,44.6-4.1c28.4,0,54,5.4,77,16.9c29.7,14.2,44.6,39.2,45.9,74.3c1.4,68.2-32.4,116.8-95.9,137.1
		c-20.9,6.8-39.8,10.1-57.4,10.1c-9.5,0-18.9-0.7-28.4-2.7c-2.7-0.7-5.4-1.4-8.8-2.7c-11.5-4.1-18.9-11.5-21.6-19.6
		c-2.7-8.8-0.7-18.2,6.1-28.4c10.8-15.5,27.7-27,49.3-32.4C861.2,463.3,880.1,460.6,897.7,458.6z M837.6,85.2
		c4.7-0.7,10.1-0.7,16.2-0.7c33.8,0,91.2,12.2,91.2,58.1c0,30.4-27,57.4-49.3,74.3c-20.9,16.2-43.2,27-58.1,32.4
		C838.9,187.1,838.3,147.3,837.6,85.2z"/>
</g>
</svg>
