<svg xmlns="http://www.w3.org/2000/svg" viewBox="0 0 21.684 21.809">
  <defs>
    <style>
      .cls-1 {
        fill: #222;
      }
    </style>
  </defs>
  <g id="Group_387" data-name="Group 387" transform="translate(-386.184 -287.043)">
    <path id="path" class="cls-1" d="M18.488,1164.053l6.2,6.2-1.859,1.859-6.2-6.2v-.991l-.372-.372a7.882,7.882,0,0,1-5.2,1.859,7.483,7.483,0,0,1-5.7-2.354,8.172,8.172,0,0,1-2.354-5.7,7.483,7.483,0,0,1,2.354-5.7,8.172,8.172,0,0,1,5.7-2.354,7.671,7.671,0,0,1,5.7,2.354,8.172,8.172,0,0,1,2.354,5.7,7.882,7.882,0,0,1-1.859,5.2l.372.372h.867Zm-11.4-1.611a5.234,5.234,0,0,0,3.965,1.611,5.423,5.423,0,0,0,3.965-1.611,5.685,5.685,0,0,0,0-7.93,5.234,5.234,0,0,0-3.965-1.611,5.424,5.424,0,0,0-3.965,1.611,5.234,5.234,0,0,0-1.611,3.965A5.732,5.732,0,0,0,7.089,1162.443Z" transform="translate(383.183 -863.256)"/>
    <path id="path-2" data-name="path" class="cls-1" d="M262.7,736.005v-3.769a1.107,1.107,0,0,1,.754-1.149,8.22,8.22,0,0,1,4.308,0,1.107,1.107,0,0,1,.754,1.149v3.769a1.227,1.227,0,0,1-1.256,1.256l.538.539v.18H263.49v-.18l.538-.539a1.191,1.191,0,0,1-.9-.359A1.26,1.26,0,0,1,262.7,736.005Zm5.026-1.974v-1.795h-4.308v1.795Zm-2.657,2.3a.694.694,0,1,0-.215-.5A.709.709,0,0,0,265.069,736.328Z" transform="translate(128.509 -439.395)"/>
  </g>
</svg>
